<?xml version="1.0" encoding="UTF-8"?>
<svg width="320px" height="627px" viewBox="0 0 320 627" version="1.1" xmlns="http://www.w3.org/2000/svg" xmlns:xlink="http://www.w3.org/1999/xlink">
    <!-- Generator: Sketch 51.3 (57544) - http://www.bohemiancoding.com/sketch -->
    <title>Slice 1</title>
    <desc>Created with Sketch.</desc>
    <defs></defs>
    <g id="Page-1" stroke="none" stroke-width="1" fill="none" fill-rule="evenodd">
        <g id="Group-2" fill-rule="nonzero">
            <path d="M223.963068,623.781784 C250.3125,614.674355 271.827652,606.772249 271.827652,586.180491 C271.827652,565.588733 277.450409,556.15154 271.827652,560.545656 C258.009869,571.344084 264.042066,566.814476 289.924242,546.956831 C292.320076,542.288209 292.320076,537.372093 289.924242,532.208485 C287.528409,527.044876 281.496212,520.008997 271.827652,511.100847 L271.827652,502.412871 L286.141098,476.635808 L289.924242,306.711614 L304.879261,292.074157 L304.879261,276.891894 L299.580966,267.750715 L317.888258,248.3233 C255.052083,177.927546 216.945234,133.345818 203.567708,114.578117 C245.916193,74.4384112 210.390625,0 158.491951,0 C98.0492424,0 76.5625,77.5939499 112.919034,114.578117 C68.6355745,171.938692 30.9958965,216.520419 0,248.3233 L15.0331439,267.750715 L8.73342803,276.891894 L8.73342803,292.074157 L24.827178,306.711614 L31.2713068,476.635808 L44.8579545,502.412871 L44.8579545,511.100847 C39.3481692,520.573088 34.8192866,527.608967 31.2713068,532.208485 C20.6155303,532.208485 21.9957386,546.956831 31.2713068,546.956831 C35.931976,552.33097 40.4608586,556.860578 44.8579545,560.545656 C44.8579545,575.498105 44.8579545,584.043049 44.8579545,586.180491 C44.8579545,603.188419 62.5883838,615.722183 98.0492424,623.781784 C98.0492424,619.008701 98.0492424,615.142824 98.0492424,612.184155 C84.8555871,607.791954 92.6429332,602.29899 98.0492424,599.212456 C103.237058,596.321285 108.193655,593.142444 112.919034,589.675931 L208.222064,589.675931 C215.493213,593.741891 220.740215,596.920733 223.963068,599.212456 C226.026574,601.257289 229.672408,603.309956 223.963068,612.184155 C219.128788,618.256578 216.316288,620.199561 223.963068,623.781784 Z" id="Path" fill="#FFFFFF"></path>
            <g id="Group" transform="translate(77.575758, 182.669291)" fill="#182229">
                <ellipse id="Oval-10" cx="75.1515152" cy="7.40551181" rx="7.27272727" ry="7.40551181"></ellipse>
                <ellipse id="Oval-9" cx="60.6060606" cy="46.9015748" rx="12.1212121" ry="12.3425197"></ellipse>
                <ellipse id="Oval-8" cx="77.5757576" cy="83.9291339" rx="14.5454545" ry="14.8110236"></ellipse>
                <ellipse id="Oval-7" cx="58.1818182" cy="128.362205" rx="19.3939394" ry="19.7480315"></ellipse>
                <ellipse id="Oval-6" cx="126.060606" cy="113.551181" rx="19.3939394" ry="19.7480315"></ellipse>
                <ellipse id="Oval-4" cx="104.242424" cy="167.858268" rx="26.6666667" ry="24.6850394"></ellipse>
                <ellipse id="Oval-3" cx="33.9393939" cy="197.480315" rx="33.9393939" ry="34.5590551"></ellipse>
                <ellipse id="Oval-2" cx="29.0909091" cy="261.661417" rx="14.5454545" ry="14.8110236"></ellipse>
                <ellipse id="Oval" cx="101.818182" cy="264.129921" rx="48.4848485" ry="46.9015748"></ellipse>
                <ellipse id="Oval-5" cx="150.30303" cy="202.417323" rx="14.5454545" ry="14.8110236"></ellipse>
            </g>
            <path d="M124.616792,98.1591912 C170.063446,98.1591912 192.786773,98.1591912 192.786773,98.1591912 C192.786773,98.1591912 219.732795,34.5590551 158.701782,34.5590551 C118.01444,34.5590551 106.652777,55.7591005 124.616792,98.1591912 Z" id="Path-2" fill="#182229"></path>
        </g>
    </g>
</svg>