<?xml version="1.0" encoding="UTF-8"?>
<svg width="68px" height="90px" viewBox="0 0 68 90" version="1.1" xmlns="http://www.w3.org/2000/svg" xmlns:xlink="http://www.w3.org/1999/xlink">
    <!-- Generator: Sketch 51.3 (57544) - http://www.bohemiancoding.com/sketch -->
    <title>Group</title>
    <desc>Created with Sketch.</desc>
    <defs></defs>
    <g id="Page-1" stroke="none" stroke-width="1" fill="none" fill-rule="evenodd">
        <g id="noun_Plate-armor_440137" fill="#414C56" fill-rule="nonzero">
            <g id="Group">
                <path d="M56.2,59.4 C62.9,45 58.7,18.6 56.2,11.9 C55.8,10.8 55.4,9.9 55,9 C54.6,9.7 54,10.3 53.2,10.8 C51.4,11.9 48.8,12.4 45.9,12.5 C47.4,15.4 53.9,30.1 51.8,65.6 L56.2,59.4 Z" id="Shape"></path>
                <path d="M8.7,73 L8.7,77.7 C8.7,77.7 15.3,88.3 34.2,89.9 C39.2,90.3 43.8,87.1 45.1,82.3 C45.3,81.6 45.6,80.8 45.9,80.1 C29.2,79 16,69.2 10.7,64.7 C9.9,67 9.2,69.8 8.7,73 Z M20.4,73.8 C20.9,73.8 21.4,74.2 21.4,74.8 C21.4,75.3 21,75.8 20.4,75.8 C19.8,75.8 19.4,75.4 19.4,74.8 C19.4,74.2 19.8,73.8 20.4,73.8 Z M18.9,81.4 C19.4,81.4 19.9,81.8 19.9,82.4 C19.9,82.9 19.5,83.4 18.9,83.4 C18.4,83.4 17.9,83 17.9,82.4 C17.9,81.8 18.4,81.4 18.9,81.4 Z" id="Shape"></path>
                <path d="M65.1,70.7 C61.9,75.7 57.3,78.3 54.7,79.5 C54.8,79.7 54.9,80 55,80.3 C56.7,84.6 62.7,85.4 65.1,81.4 C65.8,80.3 66.2,78.9 65.9,77.2 C65.9,77.2 65.8,74.6 65.1,70.7 Z" id="Shape"></path>
                <path d="M64.6,68.5 C64.1,66.6 63.5,64.5 62.6,62.3 C60.1,70.7 51.9,74.4 51.8,74.4 C51.7,74.4 51.6,74.5 51.5,74.5 C51.3,74.5 51.1,74.5 50.9,74.5 C39.8,74.5 21.3,64.1 13,59 C12.4,60.1 11.9,61.5 11.3,63 C16.2,67.3 29.7,77.6 46.8,78.6 C47.6,77.5 48.6,76.8 49.9,76.5 C51.7,76.2 53,76.9 53.9,78.1 C56.4,77.1 61.5,74.1 64.6,68.5 Z M23.2,68.9 C22.7,68.9 22.2,68.5 22.2,67.9 C22.2,67.4 22.6,66.9 23.2,66.9 C23.7,66.9 24.2,67.3 24.2,67.9 C24.2,68.4 23.7,68.9 23.2,68.9 Z" id="Shape"></path>
                <path d="M58.1,12 C58.6,13.2 59,14.6 59.3,16.2 C60.9,15.3 63.7,13.4 65.3,10.4 C64.6,9.2 63.6,8.1 62.5,7.1 C60.8,9.6 59,11.2 58.1,12 Z M60.8,11.5 C61.3,11.5 61.8,11.9 61.8,12.5 C61.8,13 61.4,13.5 60.8,13.5 C60.2,13.5 59.8,13.1 59.8,12.5 C59.8,12 60.2,11.5 60.8,11.5 Z" id="Shape"></path>
                <path d="M61.2,27.7 C61.2,27.7 62,28.5 63.1,28.5 C64.2,28.5 65.5,27.7 66.7,24.6 C67,23.9 67,22.4 67,20.7 C64,23.1 61.9,23.9 60.7,24.3 C61,26.6 61.2,27.7 61.2,27.7 Z" id="Shape"></path>
                <path d="M57.5,10.5 C58.4,9.7 59.9,8.2 61.2,6.3 C58.7,4.8 55.4,3.8 51.4,3.6 C51.5,3.6 54.8,4.5 57.5,10.5 Z" id="Shape"></path>
                <path d="M59.7,17.8 C59.8,18.1 59.8,18.3 59.8,18.6 C60.1,20.2 60.3,21.6 60.5,22.8 C61.6,22.5 63.8,21.5 67,18.8 C67,17.6 66.9,16.6 66.9,16 C66.8,14.6 66.6,13.3 66.2,12.1 C64.2,15.2 61.2,17 59.7,17.8 Z M62.5,19.8 C62,19.8 61.5,19.4 61.5,18.8 C61.5,18.2 61.9,17.8 62.5,17.8 C63,17.8 63.5,18.2 63.5,18.8 C63.5,19.4 63,19.8 62.5,19.8 Z" id="Shape"></path>
                <path d="M24.2,33.9 C23.5,32.9 22.9,31.9 22.4,31.1 C20.8,31.5 19,31.6 17.1,31.6 C11.5,31.6 5,30.3 0.7,29.2 C0.7,30.4 0.8,31.6 0.9,32.8 C13.5,38.1 21.9,35 24.2,33.9 Z" id="Shape"></path>
                <path d="M21.6,29.7 C20.8,28.4 20.3,27.4 19.9,26.6 C14,25.9 6.8,23.9 1.3,22.1 C1,24 0.8,25.8 0.8,27.7 C6.2,29 15.7,30.9 21.6,29.7 Z" id="Shape"></path>
                <path d="M31.2,18.9 C25.3,16.7 19.1,12 15.4,8.9 C13.6,9.4 10.1,10.4 7.2,12 C13.6,15.2 24.5,20.5 30.3,23.1 C30.7,21.9 31,20.5 31.2,18.9 Z M14.2,12.8 C13.7,12.8 13.2,12.4 13.2,11.8 C13.2,11.3 13.6,10.8 14.2,10.8 C14.7,10.8 15.2,11.2 15.2,11.8 C15.2,12.4 14.8,12.8 14.2,12.8 Z M22.2,17.5 C21.7,17.5 21.2,17.1 21.2,16.5 C21.2,16 21.6,15.5 22.2,15.5 C22.7,15.5 23.2,15.9 23.2,16.5 C23.2,17.1 22.8,17.5 22.2,17.5 Z" id="Shape"></path>
                <path d="M24.2,52.8 L24.6,35.4 C22.9,36.2 19.6,37.3 14.7,37.3 C11,37.3 6.4,36.6 1,34.5 C1.9,42.5 4.4,48.9 4.9,50 C8.4,52.9 12.3,54.4 16.5,54.4 C20.2,54.5 23.2,53.3 24.2,52.8 Z" id="Shape"></path>
                <path d="M26,5.7 C23,3.5 20.4,1.4 18.8,0.1 C18.8,0.1 18.7,0.1 18.7,0.1 C18.6,0.1 18.5,0.1 18.5,0.3 L17.3,8 C17.3,8.1 17.2,8.2 17.2,8.3 C20.8,11.3 26.3,15.3 31.5,17.4 C31.7,12.7 29.7,8.4 26,5.7 Z" id="Shape"></path>
                <path d="M19.1,23.4 C19.3,23 19.8,22.8 20.3,22.9 C22.4,23.4 26.4,26.4 27.7,27.5 C28.5,27 29.2,26 29.8,24.6 C23.8,21.9 12,16.1 5.7,13 C4.4,14 3.3,15.1 2.7,16.5 C2.2,17.9 1.8,19.3 1.5,20.7 C6.7,22.4 13.5,24.3 19.2,25.1 C18.8,23.8 19,23.5 19.1,23.4 Z M7.5,18.5 C7,18.5 6.5,18.1 6.5,17.5 C6.5,17 6.9,16.5 7.5,16.5 C8,16.5 8.5,16.9 8.5,17.5 C8.5,18.1 8,18.5 7.5,18.5 Z M16,22.1 C15.5,22.1 15,21.7 15,21.1 C15,20.5 15.4,20.1 16,20.1 C16.5,20.1 17,20.5 17,21.1 C17,21.7 16.6,22.1 16,22.1 Z" id="Shape"></path>
                <path d="M67.3,27.1 C66.2,29 64.8,30 63.2,30 C62.3,30 61.5,29.7 61,29.3 C61.5,34.7 61.6,40.7 61,46.4 C62.4,46.3 64,45.8 65.8,44.6 C66.8,43.9 67.4,42.7 67.4,41.4 L67.3,27.1 Z" id="Shape"></path>
                <path d="M25.3,54 C25.2,54.1 23.8,54.8 21.5,55.4 C31,60.3 46.5,65.5 50.1,66.7 C52.7,27.1 44.3,13 44.2,12.9 C44.2,12.8 44.1,12.7 44.1,12.6 C39.3,12.6 34.4,11.7 32,11.2 C32.8,13.5 33.1,15.9 32.8,18.4 C32,24.5 30.3,28.1 27.8,29 C27.5,29.1 27.3,29 27,28.9 C25.8,27.9 22.5,25.4 20.5,24.6 C21.1,26.3 23.6,30.3 25.8,33.7 C25.9,33.8 25.9,34 25.9,34.1 L25.5,53.3 C25.7,53.6 25.6,53.9 25.3,54 Z" id="Shape"></path>
                <path d="M31.3,9.5 C33.5,10 47.3,12.8 52.4,9.6 C53.3,9 53.8,8.4 54,7.5 C52.5,5.6 51.3,5.1 51.1,5.1 C50.8,5 50.5,4.9 50.3,4.6 C49.1,5.9 46.5,6.3 43.5,6.3 C36.1,6.3 26,3.6 26,3.6 L25.9,3.7 C26.2,4 26.6,4.2 27,4.5 C28.7,5.8 30.2,7.5 31.3,9.5 Z" id="Shape"></path>
                <path d="M16.5,56 C15.9,56 15.3,56 14.7,55.9 C14.4,56.4 14,57 13.6,57.7 C21.8,62.6 40.3,73 50.8,73 C50.9,73 51.1,73 51.2,73 C52.4,72.5 60.1,68.6 61.5,60.1 C60.8,58.7 60,57.3 59.1,56 C58.7,57.5 58.1,58.8 57.5,60.2 C57.5,60.3 57.4,60.4 57.4,60.4 L52.1,67.9 C51.8,68.3 51.3,68.6 50.8,68.6 C50.6,68.6 50.5,68.6 50.3,68.5 C49.4,68.2 29.5,61.8 19,55.9 C18.3,56 17.4,56 16.5,56 Z M26.3,60.8 C26.8,60.8 27.3,61.2 27.3,61.8 C27.3,62.4 26.9,62.8 26.3,62.8 C25.8,62.8 25.3,62.4 25.3,61.8 C25.3,61.2 25.8,60.8 26.3,60.8 Z" id="Shape"></path>
            </g>
        </g>
    </g>
</svg>