<?xml version="1.0" encoding="UTF-8"?>
<svg width="78px" height="90px" viewBox="0 0 78 90" version="1.1" xmlns="http://www.w3.org/2000/svg" xmlns:xlink="http://www.w3.org/1999/xlink">
    <!-- Generator: Sketch 51.3 (57544) - http://www.bohemiancoding.com/sketch -->
    <title>Slice 1</title>
    <desc>Created with Sketch.</desc>
    <defs></defs>
    <g id="Page-1" stroke="none" stroke-width="1" fill="none" fill-rule="evenodd">
        <g id="noun_foot_1066147" fill="#414C56" fill-rule="nonzero">
            <path d="M69.39,45.008 C63.425,39.481 58.626,23.571 57.164,4.475 C56.928,1.399 54.327,0.94 52.798,0.94 C52.483,0.94 21.251,0.953 20.462,1.241 C19.552,1.57 18.825,2.235 18.415,3.111 C18.005,3.988 17.961,4.971 18.291,5.88 C18.468,6.369 18.943,7.447 19.916,9.647 C23.191,17.058 31.892,36.744 31.337,41.83 C31.168,43.38 30.303,47.463 26.414,57.39 C24.353,62.649 22.848,65.995 19.318,68.118 C18.181,68.802 14.88,71.861 14.399,72.263 C13.37,72.146 11.881,72.04 10.275,72.04 C4.347,72.04 2.969,73.454 2.517,73.918 C0.672,75.808 0.175,78.569 1.152,81.493 C2.217,84.675 5.209,88.191 8.868,88.753 C9.435,88.841 12.416,89.06 16.089,89.06 C25.95,89.06 32.424,87.653 35.332,84.88 C36.221,84.031 37.957,81.653 37.957,81.653 C39.607,79.383 42.679,75.16 52.471,72.277 C52.533,72.266 56.053,72.541 57.298,72.541 C60.471,72.541 75.752,67.305 77.19,60.194 C78.043,55.983 75.104,50.302 69.39,45.008 Z M42.491,48.922 C45.353,55.073 53.288,48.78 53.779,49.022 C54.27,49.268 51.509,53.045 46.521,53.624 C43.161,54.014 42.194,52.179 42.019,50.602 C41.925,49.76 42.259,48.422 42.491,48.922 Z M15.984,77.952 C15.866,78.174 13.601,81.831 13.449,81.433 C13.19,80.753 13.995,77.342 13.891,76.927 C11.384,76.591 6.43,76.772 5.288,77.121 C3.879,79.6 5.137,82.173 6.55,83.807 C5.552,82.834 1.64,79.288 4.938,76.277 C7.25,74.167 15.239,75.792 15.239,75.792 L15.773,75.452 C16.372,75.07 20.222,71.517 21.06,71.014 C25.488,68.351 27.377,64.198 29.562,58.622 C31.529,53.601 32.942,49.536 33.794,46.456 C33.786,49.91 33.742,54.732 31.34,60.866 C28.919,67.044 26.805,70.693 21.621,73.81 C20.952,74.213 16.588,76.821 15.984,77.952 Z M35.226,79.665 C35.226,79.665 33.672,81.795 33.001,82.434 C31.635,83.737 28.668,84.688 24.507,85.213 C33.626,83.419 31.207,74.45 45.031,67.632 C46.451,66.932 47.952,66.829 47.447,67.049 C43.206,68.895 41.361,72.082 39.54,73.943 C40.269,73.412 41.045,72.89 41.925,72.396 C43.052,71.762 44.967,71.173 46.867,70.691 C39.525,73.781 36.698,77.64 35.226,79.665 Z M52.465,68.906 C52.284,67.987 51.896,66.51 50.515,65.697 C50.04,65.418 51.629,65.668 52.676,66.483 C54.449,67.862 56.864,68.858 59.348,69.035 C58.686,69.114 52.999,68.887 52.465,68.906 Z M61.023,49.33 C60.649,49.735 60.624,48.609 61.466,47.907 L63.204,46.524 C62.656,45.804 62.283,44.949 61.65,44.306 C61.202,43.851 60.62,43.634 59.143,44.798 C58.71,45.139 58.862,43.992 59.517,43.462 L60.632,42.59 C56.624,35.262 52.402,15.577 51.335,4.457 C51.861,4.456 53.754,4.467 53.756,4.438 C53.776,4.498 53.788,4.649 53.794,4.732 C55.277,24.11 60.026,39.966 66.285,46.673 C64.647,47.041 62.017,48.253 61.023,49.33 Z" id="Shape"></path>
        </g>
    </g>
</svg>