<?xml version="1.0" encoding="UTF-8"?>
<svg width="80px" height="82px" viewBox="0 0 80 82" version="1.1" xmlns="http://www.w3.org/2000/svg" xmlns:xlink="http://www.w3.org/1999/xlink">
    <!-- Generator: Sketch 51.3 (57544) - http://www.bohemiancoding.com/sketch -->
    <title>Shape</title>
    <desc>Created with Sketch.</desc>
    <defs></defs>
    <g id="Page-1" stroke="none" stroke-width="1" fill="none" fill-rule="evenodd">
        <g id="noun_Hand_98006" fill="#414C56" fill-rule="nonzero">
            <path d="M78.424,21.491 C77.259,20.14 73.978,21.387 73.978,21.387 C73.978,21.387 69.153,21.273 66.452,22.217 C65.181,22.661 63.437,24.129 61.256,25.182 C58.012,26.751 54.368,27.958 54.368,27.958 L49.216,31.444 C52.938,28.415 55.879,24.937 55.879,24.937 L65.99,17.353 L71.712,14.476 C75.335,13.005 78.393,10.511 75.93,7.112 C74.01,4.466 71.255,8.36 69.511,8.192 C69.064,8.15 54.619,15.497 51.683,17.236 C48.761,18.967 42.731,24.823 42.731,24.823 L41.584,25.874 C41.245,25.603 40.929,25.359 40.64,25.143 C48.807,17.057 48.443,15.478 52.933,13.232 C55.034,12.182 64.033,8.006 63.58,3.64 C62.979,-2.254 59.581,2.807 56.709,2.959 C53.842,3.11 50.592,7.113 46.967,8.02 C43.342,8.926 39.869,13.003 39.869,13.003 L35.863,15.647 C35.863,15.647 35.156,17.99 33.343,20.559 C31.042,23.817 28.615,26.298 28.615,26.298 L28.567,29.805 L26.348,32.853 C31.64,46.27 25.556,54.103 25.556,54.103 C30.389,44.853 24.875,32.753 24.875,32.753 C27.596,29.732 26.574,25.086 26.574,25.086 C24.912,25.541 24.008,24.482 24.008,24.482 L27.633,23.727 C31.861,21.461 35.486,11.946 35.941,9.681 C36.394,7.415 34.583,6.809 33.524,6.357 C32.466,5.905 31.259,6.357 31.259,6.357 C31.259,6.357 29.748,8.925 28.841,10.436 C27.934,11.947 25.216,13.609 23.252,14.816 C21.29,16.023 20.382,19.951 19.327,21.31 C18.269,22.672 17.817,27.719 14.493,29.985 C11.169,32.251 9.032,43.122 8.474,49.52 C8.205,52.6 7.426,55.202 6.581,57.578 L0.827,68.657 C0.827,68.657 -0.242,75.712 10.849,79.561 C19.974,82.728 24.901,80.353 24.901,80.353 L29.08,66.756 C33.228,65.212 34.976,63.89 38.06,61.02 C41.245,58.052 47.016,51.598 48.827,49.484 C50.641,47.371 52.376,45.86 52.68,45.404 C52.983,44.952 63.784,42.913 63.784,42.913 C63.784,42.913 69.108,43.299 71.229,42.142 C75.766,39.663 70.124,37.801 70.124,37.801 L64.593,37.668 L59.593,37.045 L50.745,38.924 C50.744,38.921 50.744,38.917 50.743,38.914 C58.419,36.662 62.926,31.558 62.423,31.809 C61.817,32.112 69.024,28.259 75.066,27.331 C79.774,26.605 79.78,23.065 78.424,21.491 Z M11.627,78.353 C4.467,75.822 1.82,71.407 2.224,68.708 C6.434,68.957 19.055,70.436 24.262,79.179 C22.97,79.482 17.681,80.493 11.627,78.353 Z" id="Shape"></path>
        </g>
    </g>
</svg>