<?xml version="1.0" encoding="UTF-8"?>
<svg width="77px" height="94px" viewBox="0 0 77 94" version="1.1" xmlns="http://www.w3.org/2000/svg" xmlns:xlink="http://www.w3.org/1999/xlink">
    <!-- Generator: Sketch 51.3 (57544) - http://www.bohemiancoding.com/sketch -->
    <title>Shape</title>
    <desc>Created with Sketch.</desc>
    <defs></defs>
    <g id="Page-1" stroke="none" stroke-width="1" fill="none" fill-rule="evenodd">
        <g id="noun_Head_1704647" fill="#414C56" fill-rule="nonzero">
            <path d="M50.7029988,83.7727155 C47.7779988,83.7647155 51.2689988,92.8777155 45.6249988,93.0397155 L16.9189988,93.0397155 C9.7689988,93.0397155 10.4309988,88.3237155 12.3179988,85.4737155 C15.0119988,81.4087155 15.9429988,76.1607155 15.0929988,69.7347155 C14.6849988,66.6567155 12.4039988,63.5547155 10.7209988,60.9907155 C5.4649988,52.9747155 -0.258001197,44.7117155 0.00899880308,31.9147155 C0.219998803,21.7897155 4.3909988,12.8267155 10.2519988,7.74271551 C22.1829988,-2.61128449 51.2689988,-3.24728449 62.1169988,9.90771551 C66.2049988,14.5687155 69.6859988,21.2527155 70.0899988,29.3657155 C69.8529988,34.5867155 69.8509988,35.5237155 68.4399988,38.7587155 C66.7919988,42.9817155 79.1369988,52.3487155 75.5199988,56.5867155 C73.5119988,58.5987155 71.9829988,57.7617155 69.8789988,59.0827155 C67.8319988,60.8777155 70.5309988,63.9887155 68.8319988,67.1897155 C68.5309988,71.5507155 67.2179988,70.1767155 66.7699988,72.5647155 C66.4439988,74.2937155 68.0809988,75.4257155 67.3469988,78.9157155 C66.7199988,81.8947155 64.7049988,82.7927155 61.4439988,83.2887155 C57.1229988,83.9417155 55.0349988,83.8977155 50.7029988,83.7727155 Z" id="Shape"></path>
        </g>
    </g>
</svg>