<svg xmlns="http://www.w3.org/2000/svg" xmlns:xlink="http://www.w3.org/1999/xlink" version="1.1" x="0px" y="0px" viewBox="0 0 100 125" enable-background="new 0 0 100 100" xml:space="preserve"><path d="M80.39,50.008c-5.965-5.527-10.764-21.437-12.226-40.533c-0.236-3.076-2.837-3.535-4.366-3.535  c-0.315,0-31.547,0.013-32.336,0.301c-0.91,0.329-1.637,0.994-2.047,1.87c-0.41,0.877-0.454,1.86-0.124,2.769  c0.177,0.489,0.652,1.567,1.625,3.767c3.275,7.411,11.976,27.097,11.421,32.183c-0.169,1.55-1.034,5.633-4.923,15.56  c-2.061,5.259-3.566,8.605-7.096,10.728c-1.137,0.684-4.438,3.743-4.919,4.145c-1.029-0.117-2.518-0.223-4.124-0.223  c-5.928,0-7.306,1.414-7.758,1.878c-1.845,1.89-2.342,4.651-1.365,7.575c1.065,3.182,4.057,6.698,7.716,7.26  c0.567,0.088,3.548,0.307,7.221,0.307c9.861,0,16.335-1.407,19.243-4.18c0.889-0.849,2.625-3.227,2.625-3.227  c1.65-2.27,4.722-6.493,14.514-9.376c0.062-0.011,3.582,0.264,4.827,0.264h0c3.173,0,18.454-5.236,19.892-12.347  C89.043,60.983,86.104,55.302,80.39,50.008z M53.491,53.922c2.862,6.151,10.797-0.142,11.288,0.1  c0.491,0.246-2.27,4.023-7.258,4.602c-3.36,0.39-4.327-1.445-4.502-3.022C52.925,54.76,53.259,53.422,53.491,53.922z M26.984,82.952  c-0.118,0.222-2.383,3.879-2.535,3.481c-0.259-0.68,0.546-4.091,0.442-4.506c-2.507-0.336-7.461-0.155-8.603,0.194  c-1.409,2.479-0.151,5.052,1.262,6.686c-0.998-0.973-4.91-4.519-1.612-7.53c2.312-2.11,10.301-0.485,10.301-0.485l0.534-0.34  c0.599-0.382,4.449-3.935,5.287-4.438c4.428-2.663,6.317-6.816,8.502-12.392c1.967-5.021,3.38-9.086,4.232-12.166  c-0.008,3.454-0.052,8.276-2.454,14.41c-2.421,6.178-4.535,9.827-9.719,12.944C31.952,79.213,27.588,81.821,26.984,82.952z   M46.226,84.665c0,0-1.554,2.13-2.225,2.769c-1.366,1.303-4.333,2.254-8.494,2.779c9.119-1.794,6.7-10.763,20.524-17.581  c1.42-0.7,2.921-0.803,2.416-0.583c-4.241,1.846-6.086,5.033-7.907,6.894c0.729-0.531,1.505-1.053,2.385-1.547  c1.127-0.634,3.042-1.223,4.942-1.705C50.525,78.781,47.698,82.64,46.226,84.665z M63.465,73.906  c-0.181-0.919-0.569-2.396-1.95-3.209c-0.475-0.279,1.114-0.029,2.161,0.786c1.773,1.379,4.188,2.375,6.672,2.552  C69.686,74.114,63.999,73.887,63.465,73.906z M72.023,54.33c-0.374,0.405-0.399-0.721,0.443-1.423l1.738-1.383  c-0.548-0.72-0.921-1.575-1.554-2.218c-0.448-0.455-1.03-0.672-2.507,0.492c-0.433,0.341-0.281-0.806,0.374-1.336l1.115-0.872  c-4.008-7.328-8.23-27.013-9.297-38.133c0.526-0.001,2.419,0.01,2.421-0.019c0.02,0.06,0.032,0.211,0.038,0.294  c1.483,19.378,6.232,35.234,12.491,41.941C75.647,52.041,73.017,53.253,72.023,54.33z"/><text x="0" y="115" fill="#000000" font-size="5px" font-weight="bold" font-family="'Helvetica Neue', Helvetica, Arial-Unicode, Arial, Sans-serif">Created by H Alberto Gongora</text><text x="0" y="120" fill="#000000" font-size="5px" font-weight="bold" font-family="'Helvetica Neue', Helvetica, Arial-Unicode, Arial, Sans-serif">from the Noun Project</text></svg>