<svg xmlns="http://www.w3.org/2000/svg" xmlns:xlink="http://www.w3.org/1999/xlink" version="1.1" x="0px" y="0px" viewBox="0 0 100 125" enable-background="new 0 0 100 100" xml:space="preserve"><path d="M88.424,30.491c-1.165-1.351-4.446-0.104-4.446-0.104s-4.825-0.114-7.526,0.83c-1.271,0.444-3.015,1.912-5.196,2.965  c-3.244,1.569-6.888,2.776-6.888,2.776l-5.152,3.486c3.722-3.029,6.663-6.507,6.663-6.507l10.111-7.584l5.722-2.877  c3.623-1.471,6.681-3.965,4.218-7.364c-1.92-2.646-4.675,1.248-6.419,1.08c-0.447-0.042-14.892,7.305-17.828,9.044  c-2.922,1.731-8.952,7.587-8.952,7.587l-1.147,1.051c-0.339-0.271-0.655-0.515-0.944-0.731c8.167-8.086,7.803-9.665,12.293-11.911  c2.101-1.05,11.1-5.226,10.647-9.592c-0.601-5.894-3.999-0.833-6.871-0.681c-2.867,0.151-6.117,4.154-9.742,5.061  c-3.625,0.906-7.098,4.983-7.098,4.983l-4.006,2.644c0,0-0.707,2.343-2.52,4.912c-2.301,3.258-4.728,5.739-4.728,5.739l-0.048,3.507  l-2.219,3.048c5.292,13.417-0.792,21.25-0.792,21.25c4.833-9.25-0.681-21.35-0.681-21.35c2.721-3.021,1.699-7.667,1.699-7.667  c-1.662,0.455-2.566-0.604-2.566-0.604l3.625-0.755c4.228-2.266,7.853-11.781,8.308-14.046c0.453-2.266-1.358-2.872-2.417-3.324  c-1.058-0.452-2.265,0-2.265,0s-1.511,2.568-2.418,4.079c-0.907,1.511-3.625,3.173-5.589,4.38c-1.962,1.207-2.87,5.135-3.925,6.494  c-1.058,1.362-1.51,6.409-4.834,8.675c-3.324,2.266-5.461,13.137-6.019,19.535c-0.269,3.08-1.048,5.682-1.893,8.058l-5.754,11.079  c0,0-1.069,7.055,10.022,10.904c9.125,3.167,14.052,0.792,14.052,0.792l4.179-13.597c4.148-1.544,5.896-2.866,8.98-5.736  c3.185-2.968,8.956-9.422,10.767-11.536c1.814-2.113,3.549-3.624,3.853-4.08c0.303-0.452,11.104-2.491,11.104-2.491  s5.324,0.386,7.445-0.771c4.537-2.479-1.105-4.341-1.105-4.341l-5.531-0.133l-5-0.623l-8.848,1.879  c-0.001-0.003-0.001-0.007-0.002-0.01c7.676-2.252,12.183-7.356,11.68-7.105c-0.606,0.303,6.601-3.55,12.643-4.478  C89.774,35.605,89.78,32.065,88.424,30.491z M21.627,87.353c-7.16-2.531-9.807-6.946-9.403-9.645  c4.21,0.249,16.831,1.728,22.038,10.471C32.97,88.482,27.681,89.493,21.627,87.353z"/><text x="0" y="115" fill="#000000" font-size="5px" font-weight="bold" font-family="'Helvetica Neue', Helvetica, Arial-Unicode, Arial, Sans-serif">Created by Atacan</text><text x="0" y="120" fill="#000000" font-size="5px" font-weight="bold" font-family="'Helvetica Neue', Helvetica, Arial-Unicode, Arial, Sans-serif">from the Noun Project</text></svg>