<svg xmlns="http://www.w3.org/2000/svg" xmlns:xlink="http://www.w3.org/1999/xlink" version="1.1" x="0px" y="0px" viewBox="0 0 100 125" enable-background="new 0 0 100 100" xml:space="preserve"><path d="M65.684,87.02c-2.925-0.008,0.566,9.105-5.078,9.267H31.9c-7.15,0-6.488-4.716-4.601-7.566  c2.694-4.065,3.625-9.313,2.775-15.739c-0.408-3.078-2.689-6.18-4.372-8.744c-5.256-8.016-10.979-16.279-10.712-29.076  c0.211-10.125,4.382-19.088,10.243-24.172C37.164,0.636,66.25,0,77.098,13.155c4.088,4.661,7.569,11.345,7.973,19.458  c-0.237,5.221-0.239,6.158-1.65,9.393c-1.648,4.223,10.697,13.59,7.08,17.828c-2.008,2.012-3.537,1.175-5.641,2.496  c-2.047,1.795,0.652,4.906-1.047,8.107c-0.301,4.361-1.614,2.987-2.062,5.375c-0.326,1.729,1.311,2.861,0.577,6.351  c-0.627,2.979-2.642,3.877-5.903,4.373C72.104,87.189,70.016,87.145,65.684,87.02z"/><text x="0" y="115" fill="#000000" font-size="5px" font-weight="bold" font-family="'Helvetica Neue', Helvetica, Arial-Unicode, Arial, Sans-serif">Created by corpus delicti</text><text x="0" y="120" fill="#000000" font-size="5px" font-weight="bold" font-family="'Helvetica Neue', Helvetica, Arial-Unicode, Arial, Sans-serif">from the Noun Project</text></svg>