<svg xmlns="http://www.w3.org/2000/svg" xmlns:xlink="http://www.w3.org/1999/xlink" version="1.1" x="0px" y="0px" viewBox="0 0 100 125" enable-background="new 0 0 100 100" xml:space="preserve"><g><g><path fill="none" d="M33.099,52.511c-6.101-2.543-13.405,2.209-13.613,8.568c-0.141,11.387,24.478,7.379,25.26,2.022    C45.527,57.745,38.216,54.645,33.099,52.511z"/><path fill="none" d="M45.485,76.726c0.217,0.1,3.446-2.574,4.515-3.502c1.07,0.928,4.298,3.602,4.515,3.502    c0.919-0.424-0.789-7.725-4.515-11.646C46.274,69.002,44.566,76.303,45.485,76.726z"/><path fill="none" d="M66.901,52.511c-5.117,2.133-12.428,5.234-11.647,10.591c0.782,5.357,25.401,9.365,25.259-2.022    C80.307,54.721,73.003,49.968,66.901,52.511z"/><path d="M87.001,50.256c0.428-3.672,0.46-7.346,0.088-11.021c-0.6-5.943-1.916-11.694-4.991-16.891    C77.029,13.781,69.588,8.42,59.896,6.191C56.64,5.444,53.357,5.041,50.055,5L50,5.001H50L49.944,5    c-3.302,0.041-6.584,0.444-9.84,1.191c-9.692,2.229-17.133,7.59-22.202,16.153c-3.075,5.197-4.392,10.948-4.992,16.891    c-0.371,3.674-0.339,7.349,0.089,11.021c0.235,2.016,1.111,4.591,2.997,7.806c1.15,1.101,0.847,3.745,0.426,6.123    c-0.326,1.849-0.45,2.53-1.045,4.181c-1.102,3.053,3.929,12.972,9.167,12.554c1.913,0.013,2.765-0.9,4.57-1.494    c0.328-0.107,1.073,0.11,1.297,0.349c1.127,1.206,1.977,5.613,2.157,7.183c-0.009,1.43-0.35,3.68,2.404,6.248    c0.828,0.773,1.56-2.79,3.295-3.359c0,0-0.607,3.679,0.48,4.159c1.088,0.48,3.887,0.992,4.287,0.192    c0.4-0.8,0.735-3.647,0.735-3.647s0.224,3.999,1.184,4.254c0.96,0.256,3.999,0.32,4.127-0.192c0.128-0.512,0.64-3.346,0.808-4.53    l0.056,0l0.055,0H50l0.055,0l0.057,0c0.168,1.184,0.68,4.018,0.807,4.53c0.128,0.512,3.167,0.448,4.127,0.192    c0.96-0.256,1.184-4.254,1.184-4.254s0.335,2.847,0.735,3.647c0.4,0.8,3.199,0.288,4.287-0.192c1.087-0.48,0.48-4.159,0.48-4.159    c1.734,0.569,2.467,4.132,3.295,3.359c2.754-2.568,2.413-4.818,2.404-6.248c0.179-1.57,1.03-5.977,2.157-7.183    c0.224-0.239,0.97-0.456,1.298-0.349c1.804,0.594,2.656,1.507,4.57,1.494c5.239,0.418,10.269-9.502,9.168-12.554    c-0.596-1.652-0.72-2.333-1.046-4.181c-0.42-2.378-0.723-5.022,0.427-6.123C85.889,54.847,86.766,52.272,87.001,50.256z     M44.746,63.102c-0.782,5.357-25.401,9.365-25.26-2.022c0.207-6.359,7.511-11.112,13.613-8.568    C38.216,54.645,45.527,57.745,44.746,63.102z M54.516,76.726c-0.218,0.1-3.446-2.574-4.515-3.502    c-1.07,0.928-4.298,3.602-4.515,3.502C44.566,76.303,46.274,69.002,50,65.08C53.726,69.002,55.435,76.303,54.516,76.726z     M55.254,63.102c-0.781-5.357,6.53-8.457,11.647-10.591c6.101-2.543,13.405,2.209,13.612,8.568    C80.655,72.466,56.036,68.459,55.254,63.102z"/></g></g><text x="0" y="115" fill="#000000" font-size="5px" font-weight="bold" font-family="'Helvetica Neue', Helvetica, Arial-Unicode, Arial, Sans-serif">Created by Vladimir Belochkin</text><text x="0" y="120" fill="#000000" font-size="5px" font-weight="bold" font-family="'Helvetica Neue', Helvetica, Arial-Unicode, Arial, Sans-serif">from the Noun Project</text></svg>