<svg xmlns="http://www.w3.org/2000/svg" xmlns:xlink="http://www.w3.org/1999/xlink" version="1.1" x="0px" y="0px" viewBox="0 0 48 60" enable-background="new 0 0 48 48" xml:space="preserve"><g><path fill="#000000" d="M7.3,20.6c0.3-3.4,7.9-4.7,12.4-5.5c1.1-0.2,2.2-0.2,3.3-0.2c2.8,0,5.6,0.1,8.2,0.8c2.6,0.7,4,0.9,6.3,2.3   c1.3,0.7,2.2,2.1,2.6,3.5c1.7-2.4,4.5-4.5,4.6-7.5c0.1-3-1.5-6.2-4.3-7.2c-1-0.4-2-0.5-3.1-0.5c-4.7-0.2-11.4-0.4-16.1,0   c-4.6,0.3-5.4,0-9.9,0.8c-1.9,0.4-5.6,2.3-6.6,3.9c-1,1.5-0.8,3.5-0.6,5.3C4.4,17.4,7.2,21.2,7.3,20.6z"/><path fill="#000000" d="M2.7,30.3c0.1,0.2,0.3,0.3,0.5,0.4c0.7,0.4,1.3,0.8,2,1.3c0.2,0.1,0.4,0.3,0.7,0.3c0.3,0,0.6-0.1,0.9-0.3   c2.1-1.4,3.9-3.3,6.3-4.2c-2.3-1.1-4.6-2.4-6.6-4.1c-2-1.7-3.7-3.9-4.4-6.5c-0.4,0.4-0.4,1-0.4,1.6c0,3.6,0.3,7.2,0.8,10.8   C2.5,29.8,2.5,30.1,2.7,30.3z"/><path fill="#000000" d="M40.6,24.4c-1.6,1.5-2.8,2.3-4.9,3.9c-0.6,0.5-1.1,0.7-0.8,1.4c0.4,0.9,1.4,1.2,2.3,1.4   c0.6,0.1,1.2,0.3,1.8,0.6c0.6,0.2,1.1,0.5,1.7,0.6c1.3,0.2,2.6-0.7,3.7-1.5c0.8-0.6,1.6-1.2,2.1-2.1c0.6-1.1,0.6-2.5,0.6-3.9   c-0.1-2.3-0.4-4.6-0.8-6.8c-0.8,1-1.7,2.2-2.5,3.2C42.8,22.2,41.7,23.3,40.6,24.4z"/><path fill="#000000" d="M16.7,29c-0.1-0.1-0.3-0.1-0.4-0.1c-0.1,0-0.2,0.1-0.3,0.1c-1.8,1.1-3.6,2.3-5.5,3.4   c-0.6,0.4-1.3,0.8-2,1.2C6.1,35,3.4,36,0.7,36.9c-0.1,0-0.2,0.1-0.2,0.1c0,0.1,0,0.2,0,0.2c0.7,1.4,1.5,2.8,2.5,4   c0.2,0.3,0.5,0.6,0.9,0.7c0.2,0.1,0.5,0.1,0.7,0c1.3-0.2,2.5-0.9,3.7-1.5c1-0.5,2-1,3.1-1.4c2-0.9,4.1-1.7,6.1-2.6   c2.2-1.1,4.2-2.4,6.1-4C21.3,31.3,19,30.1,16.7,29z"/><path fill="#000000" d="M34.7,31.8c-0.2-0.1-0.4-0.2-0.6-0.1c-0.2,0.1-0.3,0.3-0.4,0.5c-0.6,1.6-1.5,3.1-2.7,4.4   c0.4,0.4,0.9,0.8,1.3,1.1c3,2,6.6,3,10.1,3.9c0.2,0.1,0.5,0.1,0.7,0.1c0.3,0,0.5-0.2,0.8-0.4c1.6-1.2,2.7-3,3.6-4.7   C43.2,35.1,39,33.4,34.7,31.8z"/><path fill="#000000" d="M29.4,25.7c-1.3-1.2-3.3-1.3-5.1-1.2c-2.1,0.1-4.3,0.4-6,1.8c-0.1,0.1-0.2,0.2-0.1,0.3c0,0,0.1,0,0.1,0   c3,1,6,2.1,8.9,3.3c0.2,0.1,0.5,0.2,0.5,0.5c0,0.1,0,0.3-0.1,0.4c-1.1,2.4-3.3,4.1-5.3,5.9c-0.3,0.2-0.6,0.5-0.7,0.8   c1.9,0.2,3.9-0.3,5.5-1.4c1.6-1.1,2.8-2.8,3.4-4.6c0.3-1,0.5-2,0.3-3.1C30.6,27.4,30.1,26.3,29.4,25.7z"/></g><text x="0" y="63" fill="#000000" font-size="5px" font-weight="bold" font-family="'Helvetica Neue', Helvetica, Arial-Unicode, Arial, Sans-serif">Created by Creative Stall</text><text x="0" y="68" fill="#000000" font-size="5px" font-weight="bold" font-family="'Helvetica Neue', Helvetica, Arial-Unicode, Arial, Sans-serif">from the Noun Project</text></svg>