<?xml version="1.0" encoding="UTF-8"?>
<svg width="76px" height="90px" viewBox="0 0 76 90" version="1.1" xmlns="http://www.w3.org/2000/svg" xmlns:xlink="http://www.w3.org/1999/xlink">
    <!-- Generator: Sketch 51.3 (57544) - http://www.bohemiancoding.com/sketch -->
    <title>noun_Skull_969822</title>
    <desc>Created with Sketch.</desc>
    <defs></defs>
    <g id="Page-1" stroke="none" stroke-width="1" fill="none" fill-rule="evenodd">
        <g id="noun_Skull_969822">
            <g id="Group">
                <path d="M21.099,47.511 C14.998,44.968 7.694,49.72 7.486,56.079 C7.345,67.466 31.964,63.458 32.746,58.101 C33.527,52.745 26.216,49.645 21.099,47.511 Z" id="Shape"></path>
                <path d="M33.485,71.726 C33.702,71.826 36.931,69.152 38,68.224 C39.07,69.152 42.298,71.826 42.515,71.726 C43.434,71.302 41.726,64.001 38,60.08 C34.274,64.002 32.566,71.303 33.485,71.726 Z" id="Shape"></path>
                <path d="M54.901,47.511 C49.784,49.644 42.473,52.745 43.254,58.102 C44.036,63.459 68.655,67.467 68.513,56.08 C68.307,49.721 61.003,44.968 54.901,47.511 Z" id="Shape"></path>
                <path d="M75.001,45.256 C75.429,41.584 75.461,37.91 75.089,34.235 C74.489,28.292 73.173,22.541 70.098,17.344 C65.029,8.781 57.588,3.42 47.896,1.191 C44.64,0.444 41.357,0.041 38.055,0 L38,0.001 L37.944,0 C34.642,0.041 31.36,0.444 28.104,1.191 C18.412,3.42 10.971,8.781 5.902,17.344 C2.827,22.541 1.51,28.292 0.91,34.235 C0.539,37.909 0.571,41.584 0.999,45.256 C1.234,47.272 2.11,49.847 3.996,53.062 C5.146,54.163 4.843,56.807 4.422,59.185 C4.096,61.034 3.972,61.715 3.377,63.366 C2.275,66.419 7.306,76.338 12.544,75.92 C14.457,75.933 15.309,75.02 17.114,74.426 C17.442,74.319 18.187,74.536 18.411,74.775 C19.538,75.981 20.388,80.388 20.568,81.958 C20.559,83.388 20.218,85.638 22.972,88.206 C23.8,88.979 24.532,85.416 26.267,84.847 C26.267,84.847 25.66,88.526 26.747,89.006 C27.835,89.486 30.634,89.998 31.034,89.198 C31.434,88.398 31.769,85.551 31.769,85.551 C31.769,85.551 31.993,89.55 32.953,89.805 C33.913,90.061 36.952,90.125 37.08,89.613 C37.208,89.101 37.72,86.267 37.888,85.083 L37.944,85.083 L37.999,85.083 L38,85.083 L38.055,85.083 L38.112,85.083 C38.28,86.267 38.792,89.101 38.919,89.613 C39.047,90.125 42.086,90.061 43.046,89.805 C44.006,89.549 44.23,85.551 44.23,85.551 C44.23,85.551 44.565,88.398 44.965,89.198 C45.365,89.998 48.164,89.486 49.252,89.006 C50.339,88.526 49.732,84.847 49.732,84.847 C51.466,85.416 52.199,88.979 53.027,88.206 C55.781,85.638 55.44,83.388 55.431,81.958 C55.61,80.388 56.461,75.981 57.588,74.775 C57.812,74.536 58.558,74.319 58.886,74.426 C60.69,75.02 61.542,75.933 63.456,75.92 C68.695,76.338 73.725,66.418 72.624,63.366 C72.028,61.714 71.904,61.033 71.578,59.185 C71.158,56.807 70.855,54.163 72.005,53.062 C73.889,49.847 74.766,47.272 75.001,45.256 Z M32.746,58.102 C31.964,63.459 7.345,67.467 7.486,56.08 C7.693,49.721 14.997,44.968 21.099,47.512 C26.216,49.645 33.527,52.745 32.746,58.102 Z M42.516,71.726 C42.298,71.826 39.07,69.152 38.001,68.224 C36.931,69.152 33.703,71.826 33.486,71.726 C32.566,71.303 34.274,64.002 38,60.08 C41.726,64.002 43.435,71.303 42.516,71.726 Z M43.254,58.102 C42.473,52.745 49.784,49.645 54.901,47.511 C61.002,44.968 68.306,49.72 68.513,56.079 C68.655,67.466 44.036,63.459 43.254,58.102 Z" id="Shape" fill="#414C56" fill-rule="nonzero"></path>
            </g>
        </g>
    </g>
</svg>