<?xml version="1.0" encoding="UTF-8"?>
<svg width="48px" height="36px" viewBox="0 0 48 36" version="1.1" xmlns="http://www.w3.org/2000/svg" xmlns:xlink="http://www.w3.org/1999/xlink">
    <!-- Generator: Sketch 51.3 (57544) - http://www.bohemiancoding.com/sketch -->
    <title>Group</title>
    <desc>Created with Sketch.</desc>
    <defs></defs>
    <g id="Page-1" stroke="none" stroke-width="1" fill="none" fill-rule="evenodd">
        <g id="noun_Karate-Belt_177902" fill="#414C56" fill-rule="nonzero">
            <g id="Group">
                <path d="M7.3,14.6 C7.6,11.2 15.2,9.9 19.7,9.1 C20.8,8.9 21.9,8.9 23,8.9 C25.8,8.9 28.6,9 31.2,9.7 C33.8,10.4 35.2,10.6 37.5,12 C38.8,12.7 39.7,14.1 40.1,15.5 C41.8,13.1 44.6,11 44.7,8 C44.8,5 43.2,1.8 40.4,0.8 C39.4,0.4 38.4,0.3 37.3,0.3 C32.6,0.1 25.9,-0.1 21.2,0.3 C16.6,0.6 15.8,0.3 11.3,1.1 C9.4,1.5 5.7,3.4 4.7,5 C3.7,6.5 3.9,8.5 4.1,10.3 C4.4,11.4 7.2,15.2 7.3,14.6 Z" id="Shape"></path>
                <path d="M2.7,24.3 C2.8,24.5 3,24.6 3.2,24.7 C3.9,25.1 4.5,25.5 5.2,26 C5.4,26.1 5.6,26.3 5.9,26.3 C6.2,26.3 6.5,26.2 6.8,26 C8.9,24.6 10.7,22.7 13.1,21.8 C10.8,20.7 8.5,19.4 6.5,17.7 C4.5,16 2.8,13.8 2.1,11.2 C1.7,11.6 1.7,12.2 1.7,12.8 C1.7,16.4 2,20 2.5,23.6 C2.5,23.8 2.5,24.1 2.7,24.3 Z" id="Shape"></path>
                <path d="M40.6,18.4 C39,19.9 37.8,20.7 35.7,22.3 C35.1,22.8 34.6,23 34.9,23.7 C35.3,24.6 36.3,24.9 37.2,25.1 C37.8,25.2 38.4,25.4 39,25.7 C39.6,25.9 40.1,26.2 40.7,26.3 C42,26.5 43.3,25.6 44.4,24.8 C45.2,24.2 46,23.6 46.5,22.7 C47.1,21.6 47.1,20.2 47.1,18.8 C47,16.5 46.7,14.2 46.3,12 C45.5,13 44.6,14.2 43.8,15.2 C42.8,16.2 41.7,17.3 40.6,18.4 Z" id="Shape"></path>
                <path d="M16.7,23 C16.6,22.9 16.4,22.9 16.3,22.9 C16.2,22.9 16.1,23 16,23 C14.2,24.1 12.4,25.3 10.5,26.4 C9.9,26.8 9.2,27.2 8.5,27.6 C6.1,29 3.4,30 0.7,30.9 C0.6,30.9 0.5,31 0.5,31 C0.5,31.1 0.5,31.2 0.5,31.2 C1.2,32.6 2,34 3,35.2 C3.2,35.5 3.5,35.8 3.9,35.9 C4.1,36 4.4,36 4.6,35.9 C5.9,35.7 7.1,35 8.3,34.4 C9.3,33.9 10.3,33.4 11.4,33 C13.4,32.1 15.5,31.3 17.5,30.4 C19.7,29.3 21.7,28 23.6,26.4 C21.3,25.3 19,24.1 16.7,23 Z" id="Shape"></path>
                <path d="M34.7,25.8 C34.5,25.7 34.3,25.6 34.1,25.7 C33.9,25.8 33.8,26 33.7,26.2 C33.1,27.8 32.2,29.3 31,30.6 C31.4,31 31.9,31.4 32.3,31.7 C35.3,33.7 38.9,34.7 42.4,35.6 C42.6,35.7 42.9,35.7 43.1,35.7 C43.4,35.7 43.6,35.5 43.9,35.3 C45.5,34.1 46.6,32.3 47.5,30.6 C43.2,29.1 39,27.4 34.7,25.8 Z" id="Shape"></path>
                <path d="M29.4,19.7 C28.1,18.5 26.1,18.4 24.3,18.5 C22.2,18.6 20,18.9 18.3,20.3 C18.2,20.4 18.1,20.5 18.2,20.6 C18.2,20.6 18.3,20.6 18.3,20.6 C21.3,21.6 24.3,22.7 27.2,23.9 C27.4,24 27.7,24.1 27.7,24.4 C27.7,24.5 27.7,24.7 27.6,24.8 C26.5,27.2 24.3,28.9 22.3,30.7 C22,30.9 21.7,31.2 21.6,31.5 C23.5,31.7 25.5,31.2 27.1,30.1 C28.7,29 29.9,27.3 30.5,25.5 C30.8,24.5 31,23.5 30.8,22.4 C30.6,21.4 30.1,20.3 29.4,19.7 Z" id="Shape"></path>
            </g>
        </g>
    </g>
</svg>