<?xml version="1.0" encoding="UTF-8"?>
<svg width="66px" height="127px" viewBox="0 0 66 127" version="1.1" xmlns="http://www.w3.org/2000/svg" xmlns:xlink="http://www.w3.org/1999/xlink">
    <!-- Generator: Sketch 51.3 (57544) - http://www.bohemiancoding.com/sketch -->
    <title>Slice 1</title>
    <desc>Created with Sketch.</desc>
    <defs></defs>
    <g id="Page-1" stroke="none" stroke-width="1" fill="none" fill-rule="evenodd">
        <g id="Group-2" fill-rule="nonzero">
            <path d="M46.1923828,126.348145 C51.6269531,124.503418 56.0644531,122.902832 56.0644531,118.731934 C56.0644531,114.561035 57.2241469,112.649514 56.0644531,113.539551 C53.2145355,115.726792 54.4586761,114.809312 59.796875,110.787109 C60.2910156,109.841471 60.2910156,108.845703 59.796875,107.799805 C59.3027344,106.753906 58.0585938,105.328776 56.0644531,103.524414 L56.0644531,101.764648 L59.0166016,96.543457 L59.796875,62.125 L62.8813477,59.1601563 L62.8813477,56.0849609 L61.7885742,54.2333984 L65.5644531,50.2983398 C52.6044922,36.0395508 44.7449544,27.0094401 41.9858398,23.2080078 C50.7202148,15.0776367 43.3930664,0 32.6889648,0 C20.2226562,0 15.7910156,15.7167969 23.2895508,23.2080078 C14.1560872,34.8264974 6.39290365,43.8566081 0,50.2983398 L3.10058594,54.2333984 L1.80126953,56.0849609 L1.80126953,59.1601563 L5.12060547,62.125 L6.44970703,96.543457 L9.25195312,101.764648 L9.25195312,103.524414 C8.1155599,105.443034 7.18147786,106.868164 6.44970703,107.799805 C4.25195312,107.799805 4.53662109,110.787109 6.44970703,110.787109 C7.41097005,111.875651 8.34505208,112.793132 9.25195312,113.539551 C9.25195312,116.568197 9.25195312,118.298991 9.25195312,118.731934 C9.25195312,122.176921 12.9088542,124.715658 20.2226562,126.348145 C20.2226562,125.381348 20.2226562,124.598307 20.2226562,123.999023 C17.5014648,123.109375 19.107605,121.996765 20.2226562,121.371582 C21.2926432,120.78597 22.3149414,120.14209 23.2895508,119.439941 L42.9458008,119.439941 C44.4454753,120.263509 45.5276693,120.907389 46.1923828,121.371582 C46.617981,121.785767 47.3699341,122.201538 46.1923828,123.999023 C45.1953125,125.229004 44.6152344,125.622559 46.1923828,126.348145 Z" id="Path" fill="#FFFFFF"></path>
            <g id="Group" transform="translate(16.000000, 37.000000)" fill="#182229">
                <circle id="Oval-10" cx="15.5" cy="1.5" r="1.5"></circle>
                <circle id="Oval-9" cx="12.5" cy="9.5" r="2.5"></circle>
                <circle id="Oval-8" cx="16" cy="17" r="3"></circle>
                <circle id="Oval-7" cx="12" cy="26" r="4"></circle>
                <circle id="Oval-6" cx="26" cy="23" r="4"></circle>
                <ellipse id="Oval-4" cx="21.5" cy="34" rx="5.5" ry="5"></ellipse>
                <circle id="Oval-3" cx="7" cy="40" r="7"></circle>
                <circle id="Oval-2" cx="6" cy="53" r="3"></circle>
                <ellipse id="Oval" cx="21" cy="53.5" rx="10" ry="9.5"></ellipse>
                <circle id="Oval-5" cx="31" cy="41" r="3"></circle>
            </g>
            <path d="M25.7022133,19.8823242 C35.0755857,19.8823242 39.7622719,19.8823242 39.7622719,19.8823242 C39.7622719,19.8823242 45.3198891,7 32.7322426,7 C24.3404783,7 21.9971352,11.2941081 25.7022133,19.8823242 Z" id="Path-2" fill="#182229"></path>
        </g>
    </g>
</svg>